<?xml version="1.0" standalone="no"?>
<!DOCTYPE svg PUBLIC "-//W3C//DTD SVG 20010904//EN"
 "http://www.w3.org/TR/2001/REC-SVG-20010904/DTD/svg10.dtd">
<svg version="1.0" xmlns="http://www.w3.org/2000/svg"
 width="477.000000pt" height="477.000000pt" viewBox="0 0 477.000000 477.000000"
 preserveAspectRatio="xMidYMid meet">
<metadata>
Created by potrace 1.11, written by Peter Selinger 2001-2013
</metadata>
<g transform="translate(0.000000,477.000000) scale(0.100000,-0.100000)"
fill="#000000" stroke="none">
<path d="M3015 4750 c-46 -23 -66 -27 -83 -16 -30 18 -139 -4 -156 -33 -3 -5
-24 -7 -46 -4 -25 4 -46 1 -55 -7 -18 -15 -47 -20 -141 -24 -52 -2 -81 -8
-108 -24 -21 -12 -46 -22 -56 -22 -30 0 -170 -40 -215 -61 -22 -11 -53 -30
-69 -44 -16 -14 -36 -25 -45 -25 -27 0 -79 -38 -96 -70 -8 -16 -21 -30 -28
-30 -19 0 -76 -59 -83 -86 -3 -13 -21 -32 -40 -43 -19 -11 -46 -40 -62 -64
-15 -23 -46 -62 -70 -85 -33 -33 -43 -49 -40 -69 2 -18 -5 -35 -19 -50 -21
-20 -29 -53 -24 -91 1 -8 -4 -19 -13 -25 -18 -14 -56 -126 -56 -165 0 -15 -2
-65 -4 -112 -1 -47 1 -95 5 -107 5 -14 3 -35 -6 -56 -8 -19 -12 -37 -9 -40 3
-3 -1 -19 -10 -35 -17 -33 -14 -63 8 -97 8 -13 13 -35 10 -49 -2 -14 1 -39 9
-54 7 -15 12 -36 12 -47 -1 -11 3 -25 7 -32 5 -6 11 -24 14 -39 5 -30 39 -92
60 -109 6 -5 14 -21 17 -35 5 -21 0 -29 -28 -48 -82 -53 -130 -160 -129 -287
1 -122 38 -211 124 -295 40 -39 63 -77 73 -120 9 -37 70 -104 114 -126 21 -10
58 -19 83 -19 37 -1 45 -4 48 -20 12 -80 52 -203 89 -274 23 -46 43 -85 43
-85 0 -1 -78 -2 -173 -2 -160 -1 -283 -8 -367 -19 -19 -3 -66 -7 -105 -10
-242 -18 -465 -77 -562 -149 -104 -76 -153 -167 -147 -273 4 -74 16 -109 78
-228 44 -84 52 -110 55 -162 l3 -61 -144 -73 c-128 -66 -152 -83 -228 -159
-72 -71 -93 -100 -129 -175 -34 -72 -43 -104 -47 -160 -3 -38 -6 -89 -8 -112
l-3 -43 2164 0 c1854 0 2163 2 2163 14 0 8 -13 54 -29 103 -59 181 -137 285
-320 428 -50 39 -61 58 -41 70 6 4 26 31 45 61 82 128 68 285 -33 379 -20 19
-68 64 -107 100 -97 90 -251 187 -352 219 l-82 27 38 50 c84 111 146 276 185
489 3 14 15 72 27 130 17 84 22 148 25 314 l3 210 38 44 c50 58 49 56 90 175
26 76 35 121 37 179 2 69 5 81 32 115 44 54 52 73 60 134 3 30 13 65 21 78 8
13 14 39 13 57 0 19 -1 43 -1 54 1 42 1 70 0 83 -1 6 1 25 4 40 3 16 1 41 -5
55 -6 15 -10 46 -9 70 1 28 -5 54 -18 76 -12 18 -18 35 -15 39 3 3 7 24 9 46
2 31 -3 50 -21 77 -13 19 -22 39 -19 44 7 12 -13 51 -33 66 -9 6 -21 35 -29
65 -12 48 -28 72 -55 81 -4 2 -10 14 -13 28 -3 14 -9 26 -14 28 -6 2 -19 23
-31 47 -12 24 -29 47 -39 50 -10 3 -35 21 -54 40 -20 19 -44 35 -53 35 -10 0
-28 9 -40 21 -12 11 -36 21 -55 21 -24 1 -40 10 -62 35 -16 18 -34 33 -40 33
-6 0 -20 9 -32 20 -59 58 -107 89 -138 89 -18 -1 -45 6 -61 14 -16 8 -35 13
-43 10 -8 -3 -32 9 -53 26 -21 17 -42 31 -45 31 -4 0 -14 9 -23 20 -19 23 -65
32 -100 19 -16 -6 -34 -3 -61 11 -38 19 -39 19 -76 0z"/>
</g>
</svg>
