<svg xmlns="http://www.w3.org/2000/svg" width="62" height="28" viewBox="0 0 62 28">
    <g fill="#000" fill-rule="evenodd">
        <path d="M0 21.21h8.174v-5.418H0zM18.622 18.45c0-.929.095-1.818.274-2.658h-7.844v5.418h7.856a13.06 13.06 0 0 1-.286-2.76M36.353 18.48c0-3.248-2.12-5.712-4.996-5.712-2.804 0-5.032 2.203-5.032 5.712 0 3.211 2.048 5.489 5.032 5.489 2.731 0 4.996-2.203 4.996-5.489m-14.126-.037c0-5.488 3.63-9.446 8.447-9.446 2.228 0 4.17.86 5.427 2.502l.072-.038V9.26H40.2v18.219h-3.846v-2.39l-.072-.037c-1.258 1.755-3.127 2.726-5.571 2.726-4.852 0-8.483-3.697-8.483-9.334M57.711 18.48c0-3.509-2.264-5.712-5.068-5.712-3.019 0-5.104 2.464-5.104 5.712 0 3.286 2.265 5.489 5.14 5.489 2.947 0 5.032-2.278 5.032-5.489m-10.1 6.571h-.072v2.427h-3.846V0h4.026v11.424h.036c1.366-1.605 3.27-2.427 5.57-2.427 4.853 0 8.484 3.958 8.484 9.446 0 5.637-3.63 9.334-8.519 9.334-2.516 0-4.385-.971-5.679-2.726"/>
    </g>
</svg>
