<svg xmlns="http://www.w3.org/2000/svg" width="29" height="19" viewBox="0 0 29 19">
    <g fill="#3E3E3E" fill-rule="evenodd">
        <path d="M.11.933l10.95 8.705L.13 18.11A1.46 1.46 0 0 1 0 17.51V1.49c0-.197.039-.385.11-.557M12.461 9.157L1.036.076c.148-.05.306-.076.47-.076h25.987c.162 0 .318.025.464.073L15.135 10a1.315 1.315 0 0 1-1.628-.01l-1.046-.832z"/>
        <path d="M16.905 10.204l11.186 8.672c-.183.08-.385.124-.597.124H1.507c-.144 0-.283-.02-.415-.058l10.972-8.506.656.52a2.579 2.579 0 0 0 3.189.02l.996-.772zM29 1.49v16.02c0 .153-.024.3-.068.44L17.924 9.416 28.888.929c.072.174.112.363.112.561"/>
    </g>
</svg>
