<svg xmlns="http://www.w3.org/2000/svg" width="14" height="14" viewBox="0 0 14 14">
    <path fill="#3E3E3E" fill-rule="nonzero" d="M6.95.06a.512.512 0 0 0-.464.52.51.51 0 0 0 .514.468h.488v.68c-2.051.167-3.815 1.379-4.771 3.108L0 4.84v.988l2.284-.003a6.067 6.067 0 0 0-.188.66H.488v.987h1.476c-.006.11-.01.22-.01.33 0 .11.004.22.01.33H1.14v.987h.956c.049.225.11.444.183.66h-.488v.988h.926c1.03 1.865 3.002 3.129 5.26 3.129 3.32 0 6.023-2.734 6.023-6.094 0-3.194-2.441-5.821-5.535-6.074v-.68h.488A.51.51 0 0 0 9.45.555.51.51 0 0 0 8.953.06H6.95zm1.027 2.635c2.793 0 5.046 2.28 5.046 5.106s-2.253 5.106-5.046 5.106a5.016 5.016 0 0 1-4.11-2.141h1.342v-.989H3.322a5.095 5.095 0 0 1-.224-.659H5.21V8.13H2.94a5.256 5.256 0 0 1 0-.659h2.27v-.988H3.097a5.1 5.1 0 0 1 .224-.659h1.887v-.988H3.866a5.016 5.016 0 0 1 4.11-2.141zm2.269 2.275L7.64 7.44a.496.496 0 0 0-.153.36c0 .274.219.495.489.495.13 0 .248-.05.335-.134l2.605-2.47-.671-.721z"/>
</svg>
