<svg xmlns="http://www.w3.org/2000/svg" width="26" height="21" viewBox="0 0 26 21">
    <path fill="#3E3E3E" fill-rule="nonzero" d="M26 2.484a10.7 10.7 0 0 1-3.063.836A5.322 5.322 0 0 0 25.282.387a10.696 10.696 0 0 1-3.388 1.286A5.341 5.341 0 0 0 18.001 0c-2.945 0-5.333 2.373-5.333 5.3 0 .416.047.82.137 1.21A15.176 15.176 0 0 1 1.812.97a5.29 5.29 0 0 0 1.65 7.077 5.335 5.335 0 0 1-2.416-.662v.067c0 2.568 1.838 4.71 4.278 5.197a5.446 5.446 0 0 1-2.41.093 5.336 5.336 0 0 0 4.983 3.68A10.742 10.742 0 0 1 0 18.618 15.162 15.162 0 0 0 8.176 21c9.81 0 15.175-8.077 15.175-15.082 0-.23-.005-.458-.016-.686A10.83 10.83 0 0 0 26 2.484z"/>
</svg>
